<svg width="280" height="50" viewBox="0 0 280 50" xmlns="http://www.w3.org/2000/svg">
  <defs>
    <linearGradient id="warm" x1="0%" y1="0%" x2="100%" y2="100%">
      <stop offset="0%" stop-color="#F77062"/>
      <stop offset="50%" stop-color="#FE5196"/>
      <stop offset="100%" stop-color="#F5AF19"/>
    </linearGradient>
    <linearGradient id="cool" x1="0%" y1="0%" x2="100%" y2="100%">
      <stop offset="0%" stop-color="#4FACFE"/>
      <stop offset="100%" stop-color="#00F2FE"/>
    </linearGradient>
    <linearGradient id="blend" x1="0%" y1="0%" x2="100%" y2="0%">
      <stop offset="0%" stop-color="#F77062"/>
      <stop offset="50%" stop-color="#FE5196"/>
      <stop offset="100%" stop-color="#4FACFE"/>
    </linearGradient>
  </defs>

  <!-- Main text: SHAMEZO -->
  <text x="4" y="40" font-family="'Helvetica Neue', Helvetica, Arial, sans-serif" font-size="44" font-weight="800" letter-spacing="-1">
    <tspan fill="url(#warm)">SHAME</tspan><tspan fill="url(#cool)">ZO</tspan>
  </text>

  <!-- Keitai icon (right of ZO) -->
  <g transform="translate(228, 6) rotate(25, 14, 35) scale(0.82, 0.62)">
    <!-- Upper body (screen half) -->
    <path d="M3,28 L3,8 Q3,0 10,0 L18,0 Q25,0 25,8 L25,28 Z" fill="none" stroke="url(#warm)" stroke-width="1.6" stroke-linejoin="round"/>
    <!-- Screen -->
    <rect x="6" y="4" width="16" height="18" rx="1.5" fill="url(#warm)" opacity="0.18"/>
    <!-- Earpiece -->
    <rect x="10" y="24" width="8" height="1.2" rx="0.6" fill="url(#warm)" opacity="0.4"/>
    <!-- Hinge -->
    <rect x="3" y="28" width="22" height="2.5" rx="1.25" fill="url(#blend)" opacity="0.4"/>
    <!-- Lower body (keypad half) -->
    <path d="M3,30.5 L3,62 Q3,70 10,70 L18,70 Q25,70 25,62 L25,30.5 Z" fill="none" stroke="url(#cool)" stroke-width="1.6" stroke-linejoin="round"/>
    <!-- D-pad -->
    <circle cx="14" cy="36" r="3.5" fill="none" stroke="url(#cool)" stroke-width="1" opacity="0.45"/>
    <circle cx="14" cy="36" r="1" fill="url(#cool)" opacity="0.4"/>
    <!-- Soft keys -->
    <rect x="5" y="33" width="4" height="2" rx="0.8" fill="url(#cool)" opacity="0.25"/>
    <rect x="19" y="33" width="4" height="2" rx="0.8" fill="url(#cool)" opacity="0.25"/>
    <!-- Keypad -->
    <circle cx="8" cy="44" r="1.4" fill="url(#cool)" opacity="0.3"/>
    <circle cx="14" cy="44" r="1.4" fill="url(#cool)" opacity="0.3"/>
    <circle cx="20" cy="44" r="1.4" fill="url(#cool)" opacity="0.3"/>
    <circle cx="8" cy="49.5" r="1.4" fill="url(#cool)" opacity="0.3"/>
    <circle cx="14" cy="49.5" r="1.4" fill="url(#cool)" opacity="0.3"/>
    <circle cx="20" cy="49.5" r="1.4" fill="url(#cool)" opacity="0.3"/>
    <circle cx="8" cy="55" r="1.4" fill="url(#cool)" opacity="0.3"/>
    <circle cx="14" cy="55" r="1.4" fill="url(#cool)" opacity="0.3"/>
    <circle cx="20" cy="55" r="1.4" fill="url(#cool)" opacity="0.3"/>
    <circle cx="8" cy="60.5" r="1.4" fill="url(#cool)" opacity="0.3"/>
    <circle cx="14" cy="60.5" r="1.4" fill="url(#cool)" opacity="0.3"/>
    <circle cx="20" cy="60.5" r="1.4" fill="url(#cool)" opacity="0.3"/>
    <!-- Camera -->
    <circle cx="14" cy="-3" r="2.5" fill="none" stroke="url(#cool)" stroke-width="1.2"/>
    <circle cx="14" cy="-3" r="1.2" fill="url(#cool)" opacity="0.45"/>
    <!-- Antenna -->
    <rect x="21" y="-6" width="2.5" height="7" rx="1.25" fill="url(#warm)" opacity="0.35"/>
  </g>
</svg>
